<?xml version="1.0" encoding="utf-8"?>
<!-- Generator: Adobe Illustrator 27.9.1, SVG Export Plug-In . SVG Version: 6.00 Build 0)  -->
<svg version="1.1" id="Capa_1" xmlns="http://www.w3.org/2000/svg" xmlns:xlink="http://www.w3.org/1999/xlink" x="0px" y="0px"
	 viewBox="0 0 75 75" style="enable-background:new 0 0 75 75;" xml:space="preserve">
<style type="text/css">
	.st0{fill:#FFFFFF;}
</style>
<g>
	<path class="st0" d="M39.8,27l2.9,1.2v-4.9l-2.9,1.1c0.3,0.4,0.4,0.8,0.3,1.3C40.1,26.2,40,26.6,39.8,27z"/>
	<path class="st0" d="M34.7,25.6c0-0.5,0.1-0.9,0.3-1.3l-2.9-1.1V28l2.9-1.1C34.8,26.6,34.7,26.1,34.7,25.6z"/>
	<path class="st0" d="M37.4,26.8c0.6,0,1.1-0.5,1.1-1.1c0-0.6-0.5-1.1-1.1-1.1c-0.6,0-1.1,0.5-1.1,1.1
		C36.3,26.3,36.8,26.8,37.4,26.8z"/>
	<path class="st0" d="M24.4,26.9l5,12c0.1,0.4,0,0.8-0.3,1l-2.4,1.7L36,53.2l-6.3-27.9L24.4,26.9z"/>
	<path class="st0" d="M38.6,28.2c0,0,0-0.1-0.1-0.1c-0.4,0.1-0.7,0.2-1.1,0.2c-0.4,0-0.8-0.1-1.1-0.2c0,0,0,0.1-0.1,0.1l-4,1.6
		l5.2,23.1l5.2-23.1L38.6,28.2z"/>
	<path class="st0" d="M37,2.1C17.4,2.1,1.6,17.9,1.6,37.5S17.4,72.9,37,72.9s35.4-15.8,35.4-35.4S56.6,2.1,37,2.1z M56,28.5
		l-3.8-1.1L47.4,39l2.7,1.8c0.1,0.2,0.2,0.4,0.3,0.6c0,0.2-0.1,0.4-0.2,0.6L38.4,56.9v3.2c0,0.5-0.4,0.8-0.8,0.8
		c-0.5,0-0.8-0.4-0.8-0.8v-3.2L25,42c-0.1-0.2-0.3-0.4-0.2-0.6c0-0.3,0.1-0.5,0.3-0.6l2.5-1.8l-4.9-11.4l-3.8,1.1
		c-0.4,0.1-0.9-0.2-1-0.6c-0.1-0.4,0.2-0.9,0.6-1l12-3.5v-1.4c0-0.3,0.1-0.5,0.3-0.7c0.1-0.2,0.5-0.2,0.7-0.1c0,0,4.7,1.8,4.8,1.8
		c0.4-0.1,0.7-0.2,1.1-0.2c0.4,0,0.8,0,1.2,0.1c0.1,0,4.8-1.8,4.8-1.8c0.2-0.1,0.5-0.1,0.7,0.1c0.2,0.2,0.3,0.4,0.3,0.7v1.3l12,3.5
		c0.3,0.1,0.6,0.6,0.6,1C56.9,28.4,56.4,28.6,56,28.5z"/>
	<path class="st0" d="M44.4,29.4l-0.1,0.3L39,53.3l9.2-11.7l-2.4-1.7c-0.4-0.3-0.5-0.7-0.3-1L50.6,27l-5.3-1.6L44.4,29.4z"/>
</g>
</svg>
