<?xml version="1.0" encoding="utf-8"?>
<!-- Generator: Adobe Illustrator 28.1.0, SVG Export Plug-In . SVG Version: 6.00 Build 0)  -->
<svg version="1.1" id="Capa_1" xmlns="http://www.w3.org/2000/svg" xmlns:xlink="http://www.w3.org/1999/xlink" x="0px" y="0px"
	 viewBox="0 0 75 75" style="enable-background:new 0 0 75 75;" xml:space="preserve">
<style type="text/css">
	.st0{fill:#E7C28E;}
	.st1{fill:#FFFFFF;}
</style>
<circle class="st0" cx="37" cy="37.5" r="35.4"/>
<path class="st1" d="M53.2,36.5H40.8V35H53v-6.8H21V35h12.4v1.5H21c-0.8,0-1.4-0.7-1.5-1.5V28c0-0.8,0.7-1.4,1.5-1.3c0,0,0,0,0,0
	h32.2c0.7,0,1.3,0.5,1.3,1.3c0,0,0,0,0,0.1v7.1C54.6,35.8,54,36.5,53.2,36.5C53.3,36.5,53.2,36.5,53.2,36.5z"/>
<path class="st1" d="M51.1,55.2H23.2c-0.8,0-1.4-0.7-1.5-1.5V36.3c0-0.8,0.7-1.4,1.4-1.3c0,0,0,0,0,0h10.1v1.5H23.3v17.1h27.6V36.3
	c0,0.1,0.1,0.2,0.2,0.2V35c0.8,0,1.4,0.6,1.4,1.4c0,0,0,0,0,0v17.3C52.5,54.5,51.9,55.1,51.1,55.2C51.1,55.2,51.1,55.2,51.1,55.2z"
	/>
<path class="st1" d="M41.6,55.2h-9V26.7h9V55.2z"/>
<path class="st1" d="M44.3,28.1H38c-0.7-0.1-1.3-0.5-1.6-1.2c-0.3-0.7-0.4-1.8,1-3.3c0.9-0.9,3.9-4,6.8-4c1.3,0,2.5,0.7,3.1,1.8
	c0.6,0.8,0.7,1.9,0.5,2.9c-0.6,2.2-3.3,3.7-3.4,3.7L44.3,28.1z M38.1,26.6h5.8c1.1-0.6,2-1.5,2.5-2.7c0.1-0.6,0-1.1-0.3-1.6
	c-0.4-0.7-1.1-1.1-1.8-1.1c-1.8,0-4.2,1.9-5.6,3.5c-0.6,0.6-0.8,1.2-0.8,1.5C37.9,26.4,38,26.5,38.1,26.6z"/>
<path class="st1" d="M36,28.1h-6.2L29.6,28c-0.1-0.1-2.8-1.5-3.4-3.7c-0.3-1-0.1-2,0.5-2.9c0.6-1.1,1.8-1.8,3.1-1.8
	c2.9,0,5.9,3.1,6.8,4c1.4,1.5,1.3,2.6,1,3.3C37.3,27.5,36.7,28,36,28.1z M30.2,26.6H36c0.1-0.1,0.2-0.2,0.3-0.4
	c0.1-0.4-0.2-0.9-0.8-1.5c-1.5-1.6-3.8-3.5-5.6-3.5c-0.8,0-1.5,0.4-1.9,1.1c-0.3,0.5-0.4,1.1-0.3,1.6C28.2,25.1,29.1,26,30.2,26.6z"
	/>
</svg>
